<svg width="680" height="460" viewBox="0 0 680 460" xmlns="http://www.w3.org/2000/svg" font-family="Microsoft YaHei,sans-serif">
  <rect x="20" y="20" width="170" height="180" rx="6" fill="#fff" stroke="#1890ff" stroke-width="2"/>
  <rect x="20" y="20" width="170" height="28" rx="6" fill="#1890ff"/>
  <rect x="20" y="42" width="170" height="6" fill="#1890ff"/>
  <text x="105" y="40" font-size="12" fill="#fff" text-anchor="middle" font-weight="bold">tb_address_pool</text>
  <text x="30" y="66" font-size="10" fill="#fa8c16" font-weight="bold">id</text><text x="60" y="66" font-size="10" fill="#333">BIGINT PK</text>
  <text x="30" y="82" font-size="10" fill="#333">pool_name VARCHAR(100)</text>
  <text x="30" y="98" font-size="10" fill="#333">pool_code VARCHAR(50) UK</text>
  <text x="30" y="114" font-size="10" fill="#333">ip_type TINYINT</text>
  <text x="30" y="130" font-size="10" fill="#333">start/end_address</text>
  <text x="30" y="146" font-size="10" fill="#333">total/available_count</text>
  <text x="30" y="162" font-size="10" fill="#333">region_code VARCHAR(20)</text>
  <text x="30" y="178" font-size="10" fill="#333">priority INT</text>
  <text x="30" y="194" font-size="10" fill="#333">status TINYINT</text>

  <line x1="190" y1="110" x2="240" y2="110" stroke="#8c8c8c" stroke-width="2"/>
  <text x="215" y="100" font-size="11" fill="#595959" text-anchor="middle" font-weight="bold">1:N</text>
  <polygon points="240,106 240,114 248,110" fill="#8c8c8c"/>

  <rect x="250" y="20" width="180" height="180" rx="6" fill="#fff" stroke="#52c41a" stroke-width="2"/>
  <rect x="250" y="20" width="180" height="28" rx="6" fill="#52c41a"/>
  <rect x="250" y="42" width="180" height="6" fill="#52c41a"/>
  <text x="340" y="40" font-size="12" fill="#fff" text-anchor="middle" font-weight="bold">tb_ip_address</text>
  <text x="260" y="66" font-size="10" fill="#fa8c16" font-weight="bold">id</text><text x="280" y="66" font-size="10" fill="#333">BIGINT PK</text>
  <text x="260" y="82" font-size="10" fill="#333">ip_address VARCHAR(45) UK</text>
  <text x="260" y="98" font-size="10" fill="#333">ip_type TINYINT</text>
  <text x="260" y="114" font-size="10" fill="#333">subnet_mask, gateway</text>
  <text x="260" y="130" font-size="10" fill="#52c41a" font-weight="bold">address_pool_id</text><text x="356" y="130" font-size="10" fill="#333"> FK</text>
  <text x="260" y="146" font-size="10" fill="#333">status TINYINT</text>
  <text x="260" y="162" font-size="10" fill="#333">region_code</text>
  <text x="260" y="178" font-size="10" fill="#52c41a" font-weight="bold">device_id</text><text x="316" y="178" font-size="10" fill="#333"> FK</text>

  <line x1="430" y1="110" x2="480" y2="110" stroke="#8c8c8c" stroke-width="2"/>
  <text x="455" y="100" font-size="11" fill="#595959" text-anchor="middle" font-weight="bold">1:N</text>
  <polygon points="480,106 480,114 488,110" fill="#8c8c8c"/>

  <rect x="490" y="20" width="170" height="180" rx="6" fill="#fff" stroke="#fa8c16" stroke-width="2"/>
  <rect x="490" y="20" width="170" height="28" rx="6" fill="#fa8c16"/>
  <rect x="490" y="42" width="170" height="6" fill="#fa8c16"/>
  <text x="575" y="40" font-size="12" fill="#fff" text-anchor="middle" font-weight="bold">tb_ip_allocation</text>
  <text x="500" y="66" font-size="10" fill="#fa8c16" font-weight="bold">id</text><text x="520" y="66" font-size="10" fill="#333">BIGINT PK</text>
  <text x="500" y="82" font-size="10" fill="#52c41a" font-weight="bold">ip_address_id</text><text x="582" y="82" font-size="10" fill="#333"> FK</text>
  <text x="500" y="98" font-size="10" fill="#333">ip_address VARCHAR(45)</text>
  <text x="500" y="114" font-size="10" fill="#52c41a" font-weight="bold">address_pool_id</text><text x="596" y="114" font-size="10" fill="#333"> FK</text>
  <text x="500" y="130" font-size="10" fill="#333">allocation_type TINYINT</text>
  <text x="500" y="146" font-size="10" fill="#333">subscriber_id</text>
  <text x="500" y="162" font-size="10" fill="#333">expiration_time</text>
  <text x="500" y="178" font-size="10" fill="#333">status TINYINT</text>

  <rect x="80" y="260" width="180" height="180" rx="6" fill="#fff" stroke="#722ed1" stroke-width="2"/>
  <rect x="80" y="260" width="180" height="28" rx="6" fill="#722ed1"/>
  <rect x="80" y="282" width="180" height="6" fill="#722ed1"/>
  <text x="170" y="280" font-size="12" fill="#fff" text-anchor="middle" font-weight="bold">tb_device</text>
  <text x="90" y="306" font-size="10" fill="#fa8c16" font-weight="bold">id</text><text x="110" y="306" font-size="10" fill="#333">BIGINT PK</text>
  <text x="90" y="322" font-size="10" fill="#333">device_name VARCHAR(100)</text>
  <text x="90" y="338" font-size="10" fill="#333">device_code VARCHAR(50) UK</text>
  <text x="90" y="354" font-size="10" fill="#333">device_type VARCHAR(30)</text>
  <text x="90" y="370" font-size="10" fill="#333">device_ip, vendor</text>
  <text x="90" y="386" font-size="10" fill="#333">region_code</text>
  <text x="90" y="402" font-size="10" fill="#333">status TINYINT</text>

  <line x1="260" y1="210" x2="260" y2="240" stroke="#8c8c8c" stroke-width="1.5" stroke-dasharray="4,2"/>
  <text x="275" y="230" font-size="10" fill="#595959">1:N</text>
  <line x1="170" y1="260" x2="260" y2="240" stroke="#8c8c8c" stroke-width="1.5" stroke-dasharray="4,2"/>

  <line x1="260" y1="350" x2="380" y2="350" stroke="#8c8c8c" stroke-width="2"/>
  <text x="320" y="340" font-size="11" fill="#595959" text-anchor="middle" font-weight="bold">1:N</text>
  <polygon points="380,346 380,354 388,350" fill="#8c8c8c"/>

  <rect x="390" y="260" width="180" height="180" rx="6" fill="#fff" stroke="#f5222d" stroke-width="2"/>
  <rect x="390" y="260" width="180" height="28" rx="6" fill="#f5222d"/>
  <rect x="390" y="282" width="180" height="6" fill="#f5222d"/>
  <text x="480" y="280" font-size="12" fill="#fff" text-anchor="middle" font-weight="bold">tb_ip_binding</text>
  <text x="400" y="306" font-size="10" fill="#fa8c16" font-weight="bold">id</text><text x="420" y="306" font-size="10" fill="#333">BIGINT PK</text>
  <text x="400" y="322" font-size="10" fill="#52c41a" font-weight="bold">ip_address_id</text><text x="482" y="322" font-size="10" fill="#333"> FK</text>
  <text x="400" y="338" font-size="10" fill="#333">ip_address VARCHAR(45)</text>
  <text x="400" y="354" font-size="10" fill="#52c41a" font-weight="bold">device_id</text><text x="456" y="354" font-size="10" fill="#333"> FK</text>
  <text x="400" y="370" font-size="10" fill="#333">binding_type TINYINT</text>
  <text x="400" y="386" font-size="10" fill="#333">binding/unbinding_time</text>
  <text x="400" y="402" font-size="10" fill="#333">status TINYINT</text>

  <line x1="430" y1="210" x2="480" y2="260" stroke="#8c8c8c" stroke-width="1.5" stroke-dasharray="4,2"/>
  <text x="460" y="235" font-size="10" fill="#595959">1:N</text>
</svg>
